<svg xmlns="http://www.w3.org/2000/svg" width="100" height="69" viewBox="0 0 100 69"><path fill="#F93" d="M0 0h100v23H0V0z"/><path fill="#FFF" d="M0 23h100v23H0V23z"/><path fill="#128807" d="M0 46h100v23H0V46z"/><path fill="#008" d="M50 25.3a9.2 9.2 0 100 18.4 9.2 9.2 0 000-18.4zm7.268 5.758a.4.4 0 00-.203.515.4.4 0 00.509.222c.073.204.138.411.194.623l-4.73.982-1.513.607a1.592 1.592 0 00-.098-.237l1.5-.641 4.04-2.65a8 8 0 01.301.579zm-2.693-3.178a.401.401 0 00.08.553.4.4 0 00.554-.065 8.1 8.1 0 01.483.44 8.1 8.1 0 01.44.483.4.4 0 00-.065.553.401.401 0 00.552.08c.124.18.238.365.347.554L52.65 32.65l-1.302.975a1.605 1.605 0 00-.158-.201l1.281-1.007 3.22-3.61-3.61 3.22-1.007 1.281a1.606 1.606 0 00-.201-.158l.975-1.302 2.173-4.315c.189.11.375.223.553.346zm-1.87-.954a.4.4 0 00.222.509.4.4 0 00.516-.203c.197.093.39.193.579.302l-2.651 4.04-.641 1.498a1.586 1.586 0 00-.237-.097l.607-1.514.982-4.73c.212.057.42.122.623.195zm-4.15-.34a.4.4 0 00.447.332.4.4 0 00.345-.435c.216-.017.433-.033.653-.033s.437.016.653.033a.4.4 0 00.345.435.4.4 0 00.447-.332c.215.04.427.09.636.146l-1.514 4.586-.23 1.608a1.621 1.621 0 00-.255-.028l.194-1.618L50 26.45l-.276 4.83.194 1.618a1.62 1.62 0 00-.254.028l-.23-1.608-1.515-4.586c.21-.057.42-.106.636-.146zm-1.998.646a.4.4 0 00.516.203.4.4 0 00.222-.509 7.63 7.63 0 01.623-.194l.982 4.73.607 1.513a1.758 1.758 0 00-.237.097l-.641-1.499-2.65-4.04a8.11 8.11 0 01.578-.301zm-3.176 2.693c.175.125.42.092.552-.08a.4.4 0 00-.065-.554c.142-.166.286-.33.44-.483.154-.154.317-.299.483-.44a.4.4 0 00.553.065.4.4 0 00.08-.553 8.08 8.08 0 01.554-.346l2.173 4.315.975 1.302a1.606 1.606 0 00-.201.158l-1.007-1.281-3.61-3.22 3.22 3.61 1.281 1.007a1.536 1.536 0 00-.158.201l-1.302-.975-4.315-2.173c.11-.189.223-.375.347-.553zm-.955 1.87a.4.4 0 00.509-.222.4.4 0 00-.203-.516 7.95 7.95 0 01.302-.579l4.04 2.651 1.499.641c-.04.076-.071.155-.098.237l-1.514-.607-4.73-.982c.057-.212.122-.42.195-.623zm-.34 4.15a.4.4 0 00.332-.447.4.4 0 00-.435-.345c-.017-.216-.033-.433-.033-.653s.016-.437.033-.653a.4.4 0 00.435-.345.4.4 0 00-.332-.447c.04-.215.09-.427.146-.636l4.586 1.514 1.608.23a1.622 1.622 0 00-.028.255l-1.618-.194-4.83.276 4.83.276 1.618-.194c.005.086.01.172.028.254l-1.608.23-4.586 1.515a7.93 7.93 0 01-.146-.636zm.646 1.998a.4.4 0 00.203-.516.4.4 0 00-.509-.222 7.971 7.971 0 01-.194-.623l4.73-.982 1.513-.607c.027.082.059.16.098.237l-1.5.641-4.04 2.65a8.018 8.018 0 01-.301-.578zm2.693 3.177a.401.401 0 00-.08-.553.4.4 0 00-.554.065 8.086 8.086 0 01-.483-.44 8.082 8.082 0 01-.44-.483.4.4 0 00-.488-.634 8.048 8.048 0 01-.346-.553l4.315-2.173 1.302-.975c.046.072.1.138.158.201l-1.281 1.007-3.22 3.61 3.61-3.22 1.007-1.281c.063.057.129.112.201.158l-.975 1.302-2.173 4.315a8.066 8.066 0 01-.553-.346zm1.87.954a.4.4 0 00-.222-.509.4.4 0 00-.515.203 8.01 8.01 0 01-.58-.302l2.651-4.04.641-1.499c.076.04.155.071.237.098l-.607 1.514-.982 4.73a7.979 7.979 0 01-.623-.195zm4.15.34a.4.4 0 00-.447-.332.4.4 0 00-.345.435c-.216.017-.433.033-.653.033s-.437-.016-.653-.033a.4.4 0 00-.345-.435.4.4 0 00-.447.332 7.934 7.934 0 01-.636-.146l1.514-4.586.23-1.608c.083.017.169.023.255.028l-.194 1.618.276 4.83.276-4.83-.194-1.618a1.62 1.62 0 00.254-.028l.23 1.608 1.515 4.586a7.93 7.93 0 01-.636.146zm1.998-.646a.4.4 0 00-.516-.203.4.4 0 00-.222.509 7.971 7.971 0 01-.623.194l-.982-4.73-.607-1.513a1.64 1.64 0 00.237-.098l.641 1.5 2.65 4.04a8 8 0 01-.578.301zm3.176-2.693a.401.401 0 00-.552.08.4.4 0 00.065.554c-.141.166-.286.33-.44.483a8.1 8.1 0 01-.483.44.4.4 0 00-.553-.065.401.401 0 00-.08.552 8.07 8.07 0 01-.554.347L51.85 37.15l-.975-1.302c.072-.046.138-.101.201-.158l1.007 1.281 3.61 3.22-3.22-3.61-1.281-1.007c.057-.063.112-.13.158-.201l1.302.975 4.315 2.173c-.11.189-.223.375-.347.553zm.955-1.87a.4.4 0 00-.509.222.4.4 0 00.203.515 7.772 7.772 0 01-.302.58l-4.04-2.651-1.499-.641c.04-.076.071-.155.098-.237l1.514.607 4.73.982c-.057.212-.122.42-.195.623zm.34-1.26c-.04.215-.09.427-.146.636l-4.586-1.514-1.608-.23c.017-.083.023-.169.028-.255l1.618.194 4.83-.276-4.83-.276-1.618.194a1.62 1.62 0 00-.028-.254l1.608-.23 4.586-1.515c.056.21.106.42.146.636a.4.4 0 00-.332.447.4.4 0 00.435.345c.017.216.033.433.033.653s-.016.437-.033.653a.4.4 0 00-.435.345.4.4 0 00.332.447z"/></svg>